<svg width="32" height="32" viewBox="0 0 64 64" fill="none" xmlns="http://www.w3.org/2000/svg">
<path d="M43 19.5V16.5C43 16.225 42.775 16 42.5 16H18.5C18.225 16 18 16.225 18 16.5V19.5C18 19.775 18.225 20 18.5 20H42.5C42.775 20 43 19.775 43 19.5ZM18.5 25C18.225 25 18 25.225 18 25.5V28.5C18 28.775 18.225 29 18.5 29H30C30.275 29 30.5 28.775 30.5 28.5V25.5C30.5 25.225 30.275 25 30 25H18.5ZM42 32.25C34.5438 32.25 28.5 38.2938 28.5 45.75C28.5 53.2063 34.5438 59.25 42 59.25C49.4562 59.25 55.5 53.2063 55.5 45.75C55.5 38.2938 49.4562 32.25 42 32.25ZM48.7188 52.4688C46.925 54.2625 44.5375 55.25 42 55.25C39.4625 55.25 37.075 54.2625 35.2812 52.4688C33.4875 50.675 32.5 48.2875 32.5 45.75C32.5 43.2125 33.4875 40.825 35.2812 39.0313C37.075 37.2375 39.4625 36.25 42 36.25C44.5375 36.25 46.925 37.2375 48.7188 39.0313C50.5125 40.825 51.5 43.2125 51.5 45.75C51.5 48.2875 50.5125 50.675 48.7188 52.4688ZM47.5625 41H44.7938C44.6313 41 44.4813 41.075 44.3875 41.2063L40.4188 46.6938L38.975 44.7C38.9288 44.6356 38.8677 44.5833 38.797 44.5474C38.7263 44.5115 38.648 44.4931 38.5687 44.4938H35.8125C35.4062 44.4938 35.1688 44.9563 35.4062 45.2875L40.0187 51.6688C40.2188 51.9438 40.625 51.9438 40.825 51.6688L47.9625 41.7938C48.2063 41.4625 47.9688 41 47.5625 41ZM27.5 53.25H13V9.25H48V30.75C48 31.025 48.225 31.25 48.5 31.25H52C52.275 31.25 52.5 31.025 52.5 30.75V6.75C52.5 5.64375 51.6063 4.75 50.5 4.75H10.5C9.39375 4.75 8.5 5.64375 8.5 6.75V55.75C8.5 56.8563 9.39375 57.75 10.5 57.75H27.5C27.775 57.75 28 57.525 28 57.25V53.75C28 53.475 27.775 53.25 27.5 53.25Z" fill="#FC9374"/>
</svg>
