<svg width="55" height="35" viewBox="0 0 36 36" fill="none" xmlns="http://www.w3.org/2000/svg">
<path d="M10.5 7.5H25.5V10.5H28.5V4.5C28.5 2.85 27.15 1.515 25.5 1.515L10.5 1.5C8.85 1.5 7.5 2.85 7.5 4.5V10.5H10.5V7.5ZM23.115 24.885L30 18L23.115 11.115L21 13.245L25.755 18L21 22.755L23.115 24.885ZM15 22.755L10.245 18L15 13.245L12.885 11.115L6 18L12.885 24.885L15 22.755ZM25.5 28.5H10.5V25.5H7.5V31.5C7.5 33.15 8.85 34.5 10.5 34.5H25.5C27.15 34.5 28.5 33.15 28.5 31.5V25.5H25.5V28.5Z" fill="white"/>
</svg>
