<svg width="32" height="32" viewBox="0 0 64 64" fill="none" xmlns="http://www.w3.org/2000/svg">
<path fill-rule="evenodd" clip-rule="evenodd" d="M50.6667 5.33325H18.6667C15.7211 5.33325 13.3333 7.72107 13.3333 10.6666H9.33333C8.59695 10.6666 8 11.2635 8 11.9999V14.6666C8 15.403 8.59695 15.9999 9.33333 15.9999H13.3333V29.3333H9.33333C8.59695 29.3333 8 29.9302 8 30.6666V33.3333C8 34.0696 8.59695 34.6666 9.33333 34.6666H13.3333V47.9999H9.33333C8.59695 47.9999 8 48.5969 8 49.3333V51.9999C8 52.7363 8.59695 53.3333 9.33333 53.3333H13.3333C13.3333 56.2788 15.7211 58.6666 18.6667 58.6666H50.6667C53.6122 58.6666 56 56.2788 56 53.3333V10.6666C56 7.72107 53.6122 5.33325 50.6667 5.33325ZM18.6667 10.6666H50.6667V53.3332H18.6667V10.6666ZM35.7867 42.2132L37.8667 40.2132C38.0777 40.0069 38.3093 39.7836 38.5563 39.5456C41.1184 37.0764 45.3333 33.0143 45.3333 29.7065C45.3123 28.1718 44.6823 26.7082 43.582 25.638C42.4818 24.5678 41.0014 23.9785 39.4667 23.9999C37.6481 24.0511 35.9233 24.8177 34.6667 26.1332C33.4101 24.8177 31.6852 24.0511 29.8667 23.9999C28.3319 23.9785 26.8515 24.5678 25.7513 25.638C24.651 26.7082 24.0211 28.1718 24 29.7065C24 33.0143 28.2149 37.0764 30.777 39.5456C31.024 39.7836 31.2557 40.0069 31.4667 40.2132L33.5467 42.2132C34.1688 42.823 35.1645 42.823 35.7867 42.2132Z" fill="#FC9374"/>
</svg>
