<svg width="32" height="32" viewBox="0 0 64 64" fill="none" xmlns="http://www.w3.org/2000/svg">
<path fill-rule="evenodd" clip-rule="evenodd" d="M45.3333 10.6666H53.3333C54.8061 10.6666 56 11.8605 56 13.3333V23.9999C56 29.891 51.2244 34.6666 45.3333 34.6666H44.96C43.7472 39.3637 39.5178 42.6508 34.6667 42.6666V53.3333H41.3333C42.0697 53.3333 42.6667 53.9302 42.6667 54.6666V57.3333C42.6667 58.0696 42.0697 58.6666 41.3333 58.6666H22.6667C21.9303 58.6666 21.3333 58.0696 21.3333 57.3333V54.6666C21.3333 53.9302 21.9303 53.3333 22.6667 53.3333H29.3333V42.6666C24.4822 42.6508 20.2528 39.3637 19.04 34.6666H18.6667C12.7756 34.6666 8 29.891 8 23.9999V13.3333C8 11.8605 9.19391 10.6666 10.6667 10.6666H18.6667V7.99992C18.6667 6.52716 19.8606 5.33325 21.3333 5.33325H42.6667C44.1394 5.33325 45.3333 6.52716 45.3333 7.99992V10.6666ZM13.3333 15.9999V23.9999C13.3333 26.9454 15.7211 29.3333 18.6667 29.3333V15.9999H13.3333ZM40 31.9999C40 34.9454 37.6122 37.3333 34.6667 37.3333H29.3333C26.3878 37.3333 24 34.9454 24 31.9999V10.6666H40V31.9999ZM45.3333 29.3333C48.2789 29.3333 50.6667 26.9454 50.6667 23.9999V15.9999H45.3333V29.3333Z" fill="#FC9374"/>
</svg>
