<svg width="32" height="32" viewBox="0 0 64 64" fill="none" xmlns="http://www.w3.org/2000/svg">
<path d="M13.3333 5.33325H18.6667V13.3333H13.3333V5.33325ZM24 5.33325H29.3333V13.3333H24V5.33325ZM34.6667 5.33325H40V13.3333H34.6667V5.33325ZM50.6667 23.9999H45.3333V18.6666H8V47.9999C8 52.4106 11.5893 55.9999 16 55.9999H37.3333C41.744 55.9999 45.3333 52.4106 45.3333 47.9999H50.6667C53.608 47.9999 56 45.6079 56 42.6666V29.3333C56 26.3919 53.608 23.9999 50.6667 23.9999ZM40 47.9999C40 48.7072 39.719 49.3854 39.219 49.8855C38.7189 50.3856 38.0406 50.6666 37.3333 50.6666H16C15.2928 50.6666 14.6145 50.3856 14.1144 49.8855C13.6143 49.3854 13.3333 48.7072 13.3333 47.9999V23.9999H40V47.9999ZM45.3333 42.6666V29.3333H50.6667L50.672 42.6666H45.3333Z" fill="#FC9374"/>
</svg>
