<svg width="70" height="70" viewBox="0 0 160 160" fill="none" xmlns="http://www.w3.org/2000/svg">
<g filter="url(#filter0_d_17_53)">
<circle cx="70" cy="60" r="30" fill="#FF926B"/>
</g>
<path d="M77.5305 59.4457L72.5958 54.511C72.1411 54.0562 71.3832 54.0562 70.9284 54.511C70.4737 54.9657 70.4737 55.7236 70.9284 56.1783L73.8421 59.1089H63.0632C62.4063 59.1089 61.8842 59.631 61.8842 60.2878C61.8842 60.9447 62.4063 61.4668 63.0632 61.4668H73.8421L70.9284 64.3804C70.4737 64.8352 70.4737 65.5931 70.9284 66.0478C71.1642 66.2836 71.4674 66.4015 71.7705 66.4015C72.0737 66.4015 72.3768 66.2836 72.6126 66.0478L77.5305 61.1299C77.7495 60.911 77.8842 60.6078 77.8842 60.2878C77.8842 59.9678 77.7663 59.6647 77.5305 59.4457Z" fill="white"/>
<defs>
<filter id="filter0_d_17_53" x="0" y="0" width="160" height="160" filterUnits="userSpaceOnUse" color-interpolation-filters="sRGB">
<feFlood flood-opacity="0" result="BackgroundImageFix"/>
<feColorMatrix in="SourceAlpha" type="matrix" values="0 0 0 0 0 0 0 0 0 0 0 0 0 0 0 0 0 0 127 0" result="hardAlpha"/>
<feOffset dx="10" dy="20"/>
<feGaussianBlur stdDeviation="25"/>
<feColorMatrix type="matrix" values="0 0 0 0 0 0 0 0 0 0 0 0 0 0 0 0 0 0 0.1 0"/>
<feBlend mode="normal" in2="BackgroundImageFix" result="effect1_dropShadow_17_53"/>
<feBlend mode="normal" in="SourceGraphic" in2="effect1_dropShadow_17_53" result="shape"/>
</filter>
</defs>
</svg>
