<svg width="70" height="70" viewBox="0 0 160 160" fill="none" xmlns="http://www.w3.org/2000/svg">
<g filter="url(#filter0_d_17_50)">
<circle cx="70" cy="60" r="30" fill="white"/>
<circle cx="70" cy="60" r="29" stroke="white" stroke-width="2"/>
</g>
<path d="M62.2379 59.4457L67.1726 54.511C67.6274 54.0562 68.3853 54.0562 68.84 54.511C69.2947 54.9657 69.2947 55.7236 68.84 56.1783L65.9263 59.1089H76.7053C77.3621 59.1089 77.8842 59.631 77.8842 60.2878C77.8842 60.9447 77.3621 61.4668 76.7053 61.4668H65.9263L68.84 64.3804C69.2947 64.8352 69.2947 65.5931 68.84 66.0478C68.6042 66.2836 68.3011 66.4015 67.9979 66.4015C67.6947 66.4015 67.3916 66.2836 67.1558 66.0478L62.2379 61.1299C62.019 60.911 61.8842 60.6078 61.8842 60.2878C61.8842 59.9678 62.0021 59.6647 62.2379 59.4457Z" fill="#FF926B"/>
<defs>
<filter id="filter0_d_17_50" x="0" y="0" width="160" height="160" filterUnits="userSpaceOnUse" color-interpolation-filters="sRGB">
<feFlood flood-opacity="0" result="BackgroundImageFix"/>
<feColorMatrix in="SourceAlpha" type="matrix" values="0 0 0 0 0 0 0 0 0 0 0 0 0 0 0 0 0 0 127 0" result="hardAlpha"/>
<feOffset dx="10" dy="20"/>
<feGaussianBlur stdDeviation="25"/>
<feColorMatrix type="matrix" values="0 0 0 0 0 0 0 0 0 0 0 0 0 0 0 0 0 0 0.1 0"/>
<feBlend mode="normal" in2="BackgroundImageFix" result="effect1_dropShadow_17_50"/>
<feBlend mode="normal" in="SourceGraphic" in2="effect1_dropShadow_17_50" result="shape"/>
</filter>
</defs>
</svg>
